<svg xmlns="http://www.w3.org/2000/svg" width="12" height="12" viewBox="0 0 12 12" fill="none">
  <path fill-rule="evenodd" clip-rule="evenodd" d="M12 6C12 9.31371 9.31371 12 6 12C2.68629 12 0 9.31371 0 6C0 2.68629 2.68629 0 6 0C9.31371 0 12 2.68629 12 6ZM6.81818 9C6.81818 8.54813 6.45187 8.18182 6 8.18182C5.54813 8.18182 5.18182 8.54813 5.18182 9C5.18182 9.45187 5.54813 9.81818 6 9.81818C6.45187 9.81818 6.81818 9.45187 6.81818 9ZM6 2.18182C5.40755 2.18182 4.93674 2.67951 4.9696 3.27105L5.13643 6.27399C5.1619 6.73231 5.54097 7.09091 6 7.09091C6.45903 7.09091 6.8381 6.73231 6.86357 6.27399L7.0304 3.27105C7.06326 2.67951 6.59245 2.18182 6 2.18182Z" fill="#C92B2F"/>
</svg>