<svg xmlns="http://www.w3.org/2000/svg" width="12" height="12" viewBox="0 0 12 12" fill="none">
  <path d="M6 0C2.69159 0 0 2.69141 0 5.9996C0 9.30779 2.69159 12 6 12C9.30841 12 12 9.30859 12 6.0004C12 2.69221 9.30841 0.000801018 6 0.000801018V0ZM9.35728 4.84934L5.45607 8.84961C5.40974 8.89705 5.35443 8.93479 5.29337 8.96064C5.23231 8.9865 5.16671 8.99994 5.1004 9.0002H5.098C4.96546 9.0001 4.83839 8.94737 4.74473 8.85361L2.64593 6.75576C2.59954 6.70931 2.56275 6.65419 2.53766 6.59353C2.51257 6.53287 2.49968 6.46787 2.49972 6.40223C2.49979 6.26966 2.55253 6.14255 2.64633 6.04886C2.74013 5.95517 2.86731 5.90258 2.99988 5.90266C3.13246 5.90273 3.25958 5.95547 3.35327 6.04926L5.09399 7.78907L8.64272 4.15086C8.73635 4.06078 8.86137 4.01069 8.99129 4.0112C9.12122 4.01171 9.24584 4.06279 9.33875 4.15361C9.43165 4.24443 9.48555 4.36785 9.48901 4.49772C9.49247 4.62759 9.44522 4.75371 9.35728 4.84934Z" fill="#2FB654"/>
</svg>