<svg xmlns="http://www.w3.org/2000/svg" width="20" height="20" viewBox="0 0 20 20" fill="none">
  <path d="M10 0C4.47059 0 0 4.47059 0 10C0 15.5294 4.47059 20 10 20C15.5294 20 20 15.5294 20 10C20 4.47059 15.5294 0 10 0ZM14.3529 12.5882C14.8235 13.0588 14.8235 13.8824 14.3529 14.3529C13.8824 14.8235 13.0588 14.8235 12.5882 14.3529L10 11.7647L7.41177 14.4706C6.94118 14.9412 6.11765 14.9412 5.64706 14.4706C5.41177 14.1176 5.29412 13.8824 5.29412 13.5294C5.29412 13.1765 5.41177 12.8235 5.64706 12.5882L8.23529 10L5.64706 7.52941C5.41177 7.17647 5.29412 6.94118 5.29412 6.58824C5.29412 6.23529 5.41177 5.88235 5.64706 5.64706C6.11765 5.17647 6.94118 5.17647 7.41177 5.64706L10 8.23529L12.5882 5.64706C13.0588 5.17647 13.8824 5.17647 14.3529 5.64706C14.8235 6.11765 14.8235 6.94118 14.3529 7.41177L11.7647 10L14.3529 12.5882Z" fill="#3E3E3E"/>
</svg>